<?xml version="1.0" encoding="UTF-8"?>
<svg xmlns="http://www.w3.org/2000/svg" xmlns:xlink="http://www.w3.org/1999/xlink" width="150px" height="150px" viewBox="0 0 375 375" version="1.1">
<g id="surface1">
<path style="fill-rule:nonzero;fill:rgb(97.254902%,71.372551%,17.647059%);fill-opacity:1;stroke-width:1;stroke-linecap:butt;stroke-linejoin:miter;stroke:rgb(13.725491%,9.411765%,8.235294%);stroke-opacity:1;stroke-miterlimit:10;" d="M 236.75 272.109375 C 255.479167 248.052083 285.979167 236.322917 316 241.640625 C 319.510417 242.260417 322.973958 243.125 326.359375 244.229167 C 321.005208 210.234375 295.145833 183.114583 261.4375 176.151042 C 228.109375 169.401042 193.171875 185 175.640625 214 C 161.755208 237.276042 160.109375 265.864583 171.229167 290.578125 C 171.697917 290.119792 172.171875 289.661458 172.651042 289.208333 C 189.833333 273.1875 213.869792 266.776042 236.75 272.109375 Z M 236.75 272.109375 " transform="matrix(0.75,0,0,0.75,0,0)"/>
<path style="fill-rule:nonzero;fill:rgb(13.725491%,9.411765%,8.235294%);fill-opacity:1;stroke-width:1;stroke-linecap:butt;stroke-linejoin:miter;stroke:rgb(13.725491%,9.411765%,8.235294%);stroke-opacity:1;stroke-miterlimit:10;" d="M 171.229167 290.578125 C 160.109375 265.864583 161.755208 237.276042 175.640625 214 C 193.182292 185.052083 228.119792 169.401042 261.401042 176.140625 C 295.104167 183.104167 320.963542 210.223958 326.317708 244.21875 C 331.848958 246.020833 337.161458 248.432292 342.161458 251.411458 C 339.84375 212.583333 314.786458 178.802083 278.302083 165.317708 C 240.609375 151.5 196.401042 163.697917 171.03125 194.75 C 146.03125 225.348958 141.770833 269.052083 161.03125 303.552083 C 163.890625 298.828125 167.3125 294.473958 171.229167 290.578125 Z M 171.229167 290.578125 " transform="matrix(0.75,0,0,0.75,0,0)"/>
<path style="fill-rule:nonzero;fill:rgb(13.725491%,9.411765%,8.235294%);fill-opacity:1;stroke-width:1;stroke-linecap:butt;stroke-linejoin:miter;stroke:rgb(13.725491%,9.411765%,8.235294%);stroke-opacity:1;stroke-miterlimit:10;" d="M 253.067708 131.541667 L 253.067708 97.890625 C 253.067708 88.239583 238.067708 88.21875 238.067708 97.890625 L 238.067708 131.541667 C 238.067708 141.1875 253.067708 141.208333 253.067708 131.541667 Z M 245.567708 97.890625 Z M 245.567708 97.890625 " transform="matrix(0.75,0,0,0.75,0,0)"/>
<path style="fill-rule:nonzero;fill:rgb(13.725491%,9.411765%,8.235294%);fill-opacity:1;stroke-width:1;stroke-linecap:butt;stroke-linejoin:miter;stroke:rgb(13.725491%,9.411765%,8.235294%);stroke-opacity:1;stroke-miterlimit:10;" d="M 176.661458 152.052083 C 181.489583 160.411458 194.447917 152.859375 189.661458 144.479167 L 172.828125 115.328125 C 168 106.96875 155.041667 114.520833 159.828125 122.901042 Z M 183.140625 148.260417 L 166.3125 119.109375 Z M 183.140625 148.260417 " transform="matrix(0.75,0,0,0.75,0,0)"/>
<path style="fill-rule:nonzero;fill:rgb(13.725491%,9.411765%,8.235294%);fill-opacity:1;stroke-width:1;stroke-linecap:butt;stroke-linejoin:miter;stroke:rgb(13.725491%,9.411765%,8.235294%);stroke-opacity:1;stroke-miterlimit:10;" d="M 141.21875 187.489583 L 112.067708 170.661458 C 103.697917 165.817708 96.130208 178.78125 104.5 183.661458 L 133.651042 200.489583 C 142 205.28125 149.588542 192.317708 141.21875 187.489583 Z M 108.291667 177.140625 L 137.4375 194 Z M 108.291667 177.140625 " transform="matrix(0.75,0,0,0.75,0,0)"/>
<path style="fill-rule:nonzero;fill:rgb(13.725491%,9.411765%,8.235294%);fill-opacity:1;stroke-width:1;stroke-linecap:butt;stroke-linejoin:miter;stroke:rgb(13.725491%,9.411765%,8.235294%);stroke-opacity:1;stroke-miterlimit:10;" d="M 87.0625 263.901042 L 120.708333 263.901042 C 130.359375 263.901042 130.380208 248.901042 120.708333 248.901042 L 87.0625 248.901042 C 77.401042 248.901042 77.390625 263.901042 87.0625 263.901042 Z M 120.708333 256.401042 Z M 120.708333 256.401042 " transform="matrix(0.75,0,0,0.75,0,0)"/>
<path style="fill-rule:nonzero;fill:rgb(13.725491%,9.411765%,8.235294%);fill-opacity:1;stroke-width:1;stroke-linecap:butt;stroke-linejoin:miter;stroke:rgb(13.725491%,9.411765%,8.235294%);stroke-opacity:1;stroke-miterlimit:10;" d="M 112.078125 342.130208 L 141.229167 325.302083 C 149.588542 320.46875 142.041667 307.510417 133.661458 312.302083 L 104.510417 329.130208 C 96.151042 334 103.6875 347 112.078125 342.130208 Z M 137.4375 318.828125 L 108.291667 335.661458 Z M 137.4375 318.828125 " transform="matrix(0.75,0,0,0.75,0,0)"/>
<path style="fill-rule:nonzero;fill:rgb(13.725491%,9.411765%,8.235294%);fill-opacity:1;stroke-width:1;stroke-linecap:butt;stroke-linejoin:miter;stroke:rgb(13.725491%,9.411765%,8.235294%);stroke-opacity:1;stroke-miterlimit:10;" d="M 370.421875 263.901042 L 404.067708 263.901042 C 413.71875 263.901042 413.739583 248.901042 404.067708 248.901042 L 370.421875 248.901042 C 360.770833 248.901042 360.75 263.901042 370.421875 263.901042 Z M 370.421875 256.401042 Z M 370.421875 256.401042 " transform="matrix(0.75,0,0,0.75,0,0)"/>
<path style="fill-rule:nonzero;fill:rgb(13.725491%,9.411765%,8.235294%);fill-opacity:1;stroke-width:1;stroke-linecap:butt;stroke-linejoin:miter;stroke:rgb(13.725491%,9.411765%,8.235294%);stroke-opacity:1;stroke-miterlimit:10;" d="M 357.479167 200.4375 L 386.630208 183.609375 C 394.989583 178.78125 387.4375 165.817708 379.0625 170.609375 L 349.911458 187.4375 C 341.552083 192.317708 349.098958 205.28125 357.479167 200.4375 Z M 382.838542 177.140625 L 353.697917 194 Z M 382.838542 177.140625 " transform="matrix(0.75,0,0,0.75,0,0)"/>
<path style="fill-rule:nonzero;fill:rgb(13.725491%,9.411765%,8.235294%);fill-opacity:1;stroke-width:1;stroke-linecap:butt;stroke-linejoin:miter;stroke:rgb(13.725491%,9.411765%,8.235294%);stroke-opacity:1;stroke-miterlimit:10;" d="M 314.46875 152.052083 L 331.302083 122.901042 C 336.140625 114.53125 323.182292 106.958333 318.302083 115.328125 L 301.46875 144.479167 C 296.682292 152.859375 309.640625 160.421875 314.46875 152.052083 Z M 324.817708 119.119792 L 308 148.270833 Z M 324.817708 119.119792 " transform="matrix(0.75,0,0,0.75,0,0)"/>
<path style="fill-rule:nonzero;fill:rgb(13.725491%,9.411765%,8.235294%);fill-opacity:1;stroke-width:1;stroke-linecap:butt;stroke-linejoin:miter;stroke:rgb(13.725491%,9.411765%,8.235294%);stroke-opacity:1;stroke-miterlimit:10;" d="M 377.25 293.369792 C 377.791667 294.78125 378.302083 296.208333 378.760417 297.661458 C 379.213542 298.979167 379.270833 300.401042 378.921875 301.75 C 402.510417 310.348958 416.526042 334.645833 412.15625 359.369792 C 407.786458 384.098958 386.302083 402.125 361.1875 402.119792 L 220.541667 402.119792 C 198.713542 402.119792 178.484375 390.6875 167.223958 371.989583 C 155.963542 353.291667 155.328125 330.057292 165.541667 310.770833 C 164.541667 309.328125 163.588542 307.869792 162.682292 306.369792 C 162.119792 305.4375 161.578125 304.5 161.0625 303.5625 C 152.421875 317.96875 149.151042 334.973958 151.828125 351.5625 C 155.625 373.869792 170.005208 392.958333 190.411458 402.75 C 202.088542 408.21875 214.1875 409.609375 226.859375 409.609375 L 350.3125 409.609375 C 360.109375 409.609375 369.8125 409.890625 379.3125 406.791667 C 403.9375 398.729167 421.161458 374.958333 420.4375 348.921875 C 419.572917 323.010417 402.145833 300.598958 377.25 293.369792 Z M 377.25 293.369792 " transform="matrix(0.75,0,0,0.75,0,0)"/>
<path style="fill-rule:nonzero;fill:rgb(13.725491%,9.411765%,8.235294%);fill-opacity:1;stroke-width:1;stroke-linecap:butt;stroke-linejoin:miter;stroke:rgb(13.725491%,9.411765%,8.235294%);stroke-opacity:1;stroke-miterlimit:10;" d="M 220.541667 277.651042 C 227.052083 277.640625 233.520833 278.651042 239.71875 280.651042 C 258.755208 252.020833 295.041667 240.338542 327.197917 252.489583 C 327.041667 249.713542 326.744792 246.947917 326.3125 244.197917 C 322.9375 243.109375 319.489583 242.25 316 241.640625 C 285.989583 236.338542 255.510417 248.067708 236.791667 272.109375 C 238.458333 272.489583 240.109375 272.932292 241.791667 273.4375 L 233.317708 276.890625 C 234.4375 275.25 235.604167 273.65625 236.817708 272.109375 C 213.9375 266.770833 189.895833 273.182292 172.708333 289.208333 C 172.229167 289.661458 171.708333 290.119792 171.291667 290.588542 C 172.380208 293.005208 173.59375 295.359375 174.921875 297.651042 C 186.666667 284.90625 203.208333 277.651042 220.541667 277.651042 Z M 220.541667 277.651042 " transform="matrix(0.75,0,0,0.75,0,0)"/>
<path style="fill-rule:nonzero;fill:rgb(13.725491%,9.411765%,8.235294%);fill-opacity:1;stroke-width:1;stroke-linecap:butt;stroke-linejoin:miter;stroke:rgb(13.725491%,9.411765%,8.235294%);stroke-opacity:1;stroke-miterlimit:10;" d="M 241.71875 273.4375 C 240.067708 272.932292 238.421875 272.489583 236.71875 272.109375 C 235.505208 273.65625 234.338542 275.25 233.21875 276.890625 Z M 241.71875 273.4375 " transform="matrix(0.75,0,0,0.75,0,0)"/>
<path style="fill-rule:nonzero;fill:rgb(13.725491%,9.411765%,8.235294%);fill-opacity:1;stroke-width:1;stroke-linecap:butt;stroke-linejoin:miter;stroke:rgb(13.725491%,9.411765%,8.235294%);stroke-opacity:1;stroke-miterlimit:10;" d="M 342.21875 260.28125 C 354.104167 268.286458 363.40625 279.567708 369 292.760417 C 370.432292 292.177083 372.015625 292.057292 373.520833 292.411458 C 374.78125 292.682292 376.020833 293.010417 377.25 293.411458 C 370.588542 275.869792 358.229167 261.078125 342.151042 251.411458 C 342.25 253.0625 342.317708 254.71875 342.328125 256.411458 C 342.317708 257.697917 342.28125 259 342.21875 260.28125 Z M 342.21875 260.28125 " transform="matrix(0.75,0,0,0.75,0,0)"/>
<path style="fill-rule:nonzero;fill:rgb(13.725491%,9.411765%,8.235294%);fill-opacity:1;stroke-width:1;stroke-linecap:butt;stroke-linejoin:miter;stroke:rgb(13.725491%,9.411765%,8.235294%);stroke-opacity:1;stroke-miterlimit:10;" d="M 369 292.760417 C 369.958333 295.010417 370.802083 297.3125 371.53125 299.651042 C 374.041667 300.166667 376.510417 300.864583 378.921875 301.75 C 379.270833 300.401042 379.213542 298.979167 378.760417 297.661458 C 378.302083 296.208333 377.760417 294.791667 377.25 293.369792 C 376.020833 293.020833 374.78125 292.6875 373.520833 292.369792 C 372.010417 292.03125 370.432292 292.166667 369 292.760417 Z M 369 292.760417 " transform="matrix(0.75,0,0,0.75,0,0)"/>
<path style="fill-rule:nonzero;fill:rgb(13.725491%,9.411765%,8.235294%);fill-opacity:1;stroke-width:1;stroke-linecap:butt;stroke-linejoin:miter;stroke:rgb(13.725491%,9.411765%,8.235294%);stroke-opacity:1;stroke-miterlimit:10;" d="M 342.328125 256.401042 C 342.390625 248.109375 331.328125 246.9375 328.182292 252.901042 C 332.869792 254.765625 337.359375 257.114583 341.567708 259.901042 C 342.104167 258.8125 342.364583 257.609375 342.328125 256.401042 Z M 342.328125 256.401042 " transform="matrix(0.75,0,0,0.75,0,0)"/>
<path style="fill-rule:nonzero;fill:rgb(13.725491%,9.411765%,8.235294%);fill-opacity:1;stroke-width:1;stroke-linecap:butt;stroke-linejoin:miter;stroke:rgb(13.725491%,9.411765%,8.235294%);stroke-opacity:1;stroke-miterlimit:10;" d="M 342.21875 260.28125 C 342.28125 258.989583 342.328125 257.6875 342.338542 256.390625 C 342.364583 257.588542 342.104167 258.776042 341.567708 259.848958 Z M 342.21875 260.28125 " transform="matrix(0.75,0,0,0.75,0,0)"/>
<path style="fill-rule:nonzero;fill:rgb(13.725491%,9.411765%,8.235294%);fill-opacity:1;stroke-width:1;stroke-linecap:butt;stroke-linejoin:miter;stroke:rgb(13.725491%,9.411765%,8.235294%);stroke-opacity:1;stroke-miterlimit:10;" d="M 165.541667 310.770833 C 168.067708 306.010417 171.197917 301.59375 174.859375 297.640625 C 173.53125 295.348958 172.317708 292.994792 171.229167 290.578125 C 167.322917 294.484375 163.90625 298.848958 161.0625 303.578125 C 161.588542 304.520833 162.119792 305.458333 162.682292 306.390625 C 163.588542 307.869792 164.5625 309.328125 165.541667 310.770833 Z M 165.541667 310.770833 " transform="matrix(0.75,0,0,0.75,0,0)"/>
<path style="fill-rule:nonzero;fill:rgb(13.725491%,9.411765%,8.235294%);fill-opacity:1;stroke-width:1;stroke-linecap:butt;stroke-linejoin:miter;stroke:rgb(13.725491%,9.411765%,8.235294%);stroke-opacity:1;stroke-miterlimit:10;" d="M 327.208333 252.510417 L 328.208333 252.890625 C 331.380208 246.890625 342.432292 248.098958 342.359375 256.390625 C 342.359375 254.71875 342.28125 253.0625 342.182292 251.390625 C 337.182292 248.411458 331.869792 246 326.338542 244.197917 C 326.770833 246.953125 327.0625 249.729167 327.208333 252.510417 Z M 327.208333 252.510417 " transform="matrix(0.75,0,0,0.75,0,0)"/>
<path style=" stroke:none;fill-rule:nonzero;fill:rgb(100%,100%,100%);fill-opacity:1;" d="M 304.019531 260.625 C 304.769531 274.921875 296.378906 288.585938 282.886719 293.753906 C 276.796875 296.085938 270.699219 295.964844 264.351562 295.964844 L 177.75 295.964844 C 173.640625 295.964844 169.5 296.003906 165.414062 295.964844 C 151.484375 295.988281 138.496094 288.941406 130.917969 277.257812 C 123.34375 265.570312 122.210938 250.839844 127.914062 238.132812 C 129.117188 235.378906 130.628906 232.765625 132.414062 230.347656 C 132.996094 229.558594 133.605469 228.800781 134.242188 228.097656 C 145.027344 215.578125 162.414062 211.078125 178.230469 215.960938 C 180.734375 216.710938 183.203125 215.40625 184.582031 213.375 C 195.5625 197.226562 215.648438 188.527344 234.945312 192.300781 C 238.507812 193 241.980469 194.082031 245.308594 195.53125 C 245.960938 195.816406 246.609375 196.109375 247.238281 196.417969 C 247.867188 196.726562 248.691406 197.167969 249.40625 197.535156 C 260.664062 203.6875 269.144531 213.914062 273.105469 226.117188 C 273.386719 228.207031 275.003906 229.867188 277.085938 230.199219 C 291.699219 233.316406 303.1875 245.460938 304.019531 260.625 Z M 304.019531 260.625 "/>
<path style=" stroke:none;fill-rule:nonzero;fill:rgb(13.725491%,9.411765%,8.235294%);fill-opacity:1;" d="M 284.191406 226.3125 C 301.882812 232.761719 312.394531 250.984375 309.117188 269.527344 C 305.839844 288.074219 289.726562 301.59375 270.890625 301.589844 L 165.40625 301.589844 C 146.96875 301.601562 130.25 290.757812 122.746094 273.917969 C 115.238281 257.078125 118.34375 237.394531 130.675781 223.6875 C 143.007812 209.980469 162.253906 204.816406 179.789062 210.511719 C 194.066406 189.039062 221.28125 180.277344 245.398438 189.390625 L 246.148438 189.675781 C 249.671875 191.070312 253.039062 192.828125 256.191406 194.925781 C 256.359375 195.03125 256.523438 195.136719 256.679688 195.246094 C 265.585938 201.242188 272.554688 209.695312 276.75 219.578125 C 277.460938 221.257812 278.101562 222.984375 278.648438 224.746094 C 280.53125 225.128906 282.382812 225.652344 284.191406 226.3125 Z M 282.886719 293.753906 C 296.386719 288.585938 304.800781 274.921875 304.019531 260.625 C 303.1875 245.460938 291.699219 233.316406 277.15625 230.167969 C 275.074219 229.835938 273.453125 228.175781 273.171875 226.085938 C 269.210938 213.882812 260.730469 203.65625 249.472656 197.503906 C 248.722656 197.113281 248.039062 196.753906 247.304688 196.386719 C 246.570312 196.019531 246.03125 195.789062 245.378906 195.503906 C 242.050781 194.054688 238.574219 192.96875 235.011719 192.269531 C 215.714844 188.519531 195.628906 197.199219 184.648438 213.34375 C 183.269531 215.378906 180.800781 216.703125 178.296875 215.933594 C 162.480469 211.050781 145.09375 215.550781 134.308594 228.066406 C 133.671875 228.816406 133.066406 229.566406 132.480469 230.316406 C 130.695312 232.738281 129.1875 235.347656 127.980469 238.101562 C 122.277344 250.808594 123.410156 265.539062 130.988281 277.226562 C 138.566406 288.914062 151.550781 295.957031 165.480469 295.933594 C 169.589844 295.972656 173.730469 295.933594 177.816406 295.933594 L 264.351562 295.933594 C 270.699219 295.964844 276.796875 296.085938 282.886719 293.753906 Z M 282.886719 293.753906 "/>
</g>
</svg>
